G04 ================== begin FILE IDENTIFICATION RECORD ==================*
G04 Layout Name:  C:/USERS/USER/DESKTOP/VSCODE_ORCAD/WORKSPACE/CAD2/allegro/CAD2.brd*
G04 Film Name:    BOTTOM*
G04 File Format:  Gerber RS274X*
G04 File Origin:  Cadence Allegro 17.2-P019*
G04 Origin Date:  Wed Jul 31 11:32:14 2019*
G04 *
G04 Layer:  ETCH/BOTTOM*
G04 Layer:  PIN/BOTTOM*
G04 Layer:  VIA CLASS/BOTTOM*
G04 *
G04 Offset:    (0.000 0.000)*
G04 Mirror:    No*
G04 Mode:      Positive*
G04 Rotation:  0*
G04 FullContactRelief:  No*
G04 UndefLineWidth:     0.000*
G04 ================== end FILE IDENTIFICATION RECORD ====================*
%FSLAX25Y25*MOMM*%
%IR0*IPPOS*OFA0.00000B0.00000*MIA0B0*SFA1.00000B1.00000*%
%ADD11C,1.524*%
%ADD12C,1.651*%
%ADD13R,1.524X1.524*%
%ADD10C,.635*%
%ADD14C,1.*%
%ADD15C,.5*%
%ADD17C,2.402*%
%ADD16C,2.274*%
G75*
%LPD*%
G75*
G36*
G01X854200Y500000D02*
Y854200D01*
X500000D01*
Y2082100D01*
G02X517400Y2089300I10184J15D01*
G01X535300Y2071500D01*
X1424400D01*
X1578500Y1917400D01*
Y1830600D01*
G03X1753500I87500J-72600D01*
G01Y1989800D01*
X1496800Y2246500D01*
X607700D01*
X500000Y2354200D01*
Y2878300D01*
G03Y3105700I0J113700D01*
G01Y3132300D01*
G03Y3359700I0J113700D01*
G01Y3376300D01*
X510500Y3386800D01*
X512300Y3387000D01*
G03X500000Y3613700I-12300J113016D01*
G01Y6225800D01*
X734200D01*
Y6500000D01*
X9225800D01*
Y6225800D01*
X9500000D01*
Y3867700D01*
G03Y3640300I0J-113700D01*
G01Y3613700D01*
G03X9437500Y3405000I0J-113709D01*
G01Y2096300D01*
X9267700Y1926500D01*
X8502600D01*
G03Y1801500I-102600J-62500D01*
G01X9319500D01*
X9482600Y1964600D01*
G02X9500000Y1957400I7206J-7211D01*
G01Y854200D01*
X9225800D01*
Y500000D01*
X854200D01*
G37*
%LPC*%
G75*
G36*
G01X8646300Y4603800D02*
Y4756200D01*
G02X8683800Y4793700I37500J0D01*
G01X8836200D01*
G02X8873700Y4756200I0J-37500D01*
G01Y4603800D01*
G02X8836200Y4566300I-37500J0D01*
G01X8683800D01*
G02X8646300Y4603800I0J37500D01*
G37*
G36*
G01X5526300Y3763800D02*
Y3916200D01*
G02X5563800Y3953700I37500J0D01*
G01X5716200D01*
G02X5753700Y3916200I0J-37500D01*
G01Y3763800D01*
G02X5716200Y3726300I-37500J0D01*
G01X5563800D01*
G02X5526300Y3763800I0J37500D01*
G37*
G36*
G01X1806300Y2443800D02*
Y2596200D01*
G02X1843800Y2633700I37500J0D01*
G01X1996200D01*
G02X2033700Y2596200I0J-37500D01*
G01Y2443800D01*
G02X1996200Y2406300I-37500J0D01*
G01X1843800D01*
G02X1806300Y2443800I0J37500D01*
G37*
G36*
G01X2942500Y5961900D02*
Y5827000D01*
G02X2817500I-62500J-95000D01*
G01Y5910100D01*
X2804100Y5923500D01*
X2721000D01*
G02Y6048500I-95000J62500D01*
G01X2855900D01*
X2942500Y5961900D01*
G37*
G36*
G01X5158500Y6042300D02*
Y5622600D01*
G02X5033500I-62500J-102600D01*
G01Y5990500D01*
X4846500Y6177500D01*
X2975000D01*
G02Y6302500I-95000J62500D01*
G01X4898300D01*
X5158500Y6042300D01*
G37*
G36*
G01X7463000Y5003400D02*
X8457500Y5997900D01*
Y6193400D01*
G02X8582500I62500J102600D01*
G01Y5946100D01*
X7551400Y4915000D01*
X7551900Y4912400D01*
G02X7460400Y5003900I-111900J-20400D01*
G01X7463000Y5003400D01*
G37*
G36*
G01X9062500Y5734100D02*
X8636700Y5308400D01*
X8637300Y5305600D01*
G02X8582500Y5177400I-117326J-25660D01*
G01Y4811100D01*
X8568500Y4797100D01*
Y4775000D01*
G02X8443500I-62500J-95000D01*
G01Y4848900D01*
X8457500Y4862900D01*
Y5177400D01*
G02X8545600Y5397300I62487J102563D01*
G01X8548400Y5396700D01*
X8937500Y5785900D01*
Y6193400D01*
G02X9062500I62500J102600D01*
G01Y5734100D01*
G37*
G36*
G01X4401900Y5582500D02*
X5067600Y4916700D01*
X5070400Y4917300D01*
G02X5213300Y4774400I25600J-117300D01*
G01X5212700Y4771600D01*
X5956500Y4027900D01*
Y3935000D01*
G02X5831500I-62500J-95000D01*
G01Y3976100D01*
X5124400Y4683300D01*
X5121600Y4682700D01*
G02X4978700Y4825600I-25600J117300D01*
G01X4979300Y4828400D01*
X4350100Y5457500D01*
X4182600D01*
G02Y5582500I-102600J62500D01*
G01X4401900D01*
G37*
G36*
G01X1945600Y3117300D02*
X1948400Y3116700D01*
X2178200Y3346600D01*
Y4549900D01*
G03X2167400Y4560100I-10187J31D01*
G02X2277300Y4654400I-7444J119865D01*
G01X2276700Y4651600D01*
X2303200Y4625200D01*
Y3294800D01*
X2036700Y3028400D01*
X2037300Y3025600D01*
G02X1945600Y3117300I-117300J-25600D01*
G37*
G36*
G01X1225600D02*
X1228400Y3116700D01*
X1461500Y3349900D01*
Y4450100D01*
X1348400Y4563300D01*
X1345600Y4562700D01*
G02X1202700Y4705600I-25600J117300D01*
G01X1203300Y4708400D01*
X1017000Y4894600D01*
Y5994900D01*
X1338600Y6316500D01*
X1457400D01*
G02Y6191500I102600J-62500D01*
G01X1390400D01*
X1142000Y5943100D01*
Y4946400D01*
X1184500Y4903900D01*
G03X1201800Y4912900I7261J7171D01*
G02X1282000Y4820100I118211J21105D01*
G03X1276700Y4811600I-1713J-4834D01*
G01X1291600Y4796700D01*
X1294400Y4797300D01*
G02X1437300Y4654400I25600J-117300D01*
G01X1436700Y4651600D01*
X1586500Y4501900D01*
Y3298100D01*
X1316700Y3028400D01*
X1317300Y3025600D01*
G02X1225600Y3117300I-117300J-25600D01*
G37*
G36*
G01X7868300Y3906300D02*
X7513500Y3551500D01*
X7281000D01*
G02Y3676500I-95000J62500D01*
G01X7461700D01*
X8189500Y4404300D01*
Y4585000D01*
G02X8314500I62500J95000D01*
G01Y4352500D01*
X8229900Y4267900D01*
G03X8237100Y4250500I7211J-7206D01*
G01X8797600D01*
X8937500Y4390400D01*
Y5177400D01*
G02X9062500I62500J102600D01*
G01Y4338600D01*
X8849400Y4125500D01*
X8314500D01*
Y4013000D01*
G02Y3823000I-62500J-95000D01*
G01Y3273100D01*
X7858900Y2817500D01*
X7422600D01*
G02Y2942500I-102600J62500D01*
G01X7807100D01*
X8189500Y3324900D01*
Y3823000D01*
G02Y4013000I62500J95000D01*
G01Y4202900D01*
G03X8172100Y4210100I-10194J-11D01*
G01X8009700Y4047700D01*
G03X8015300Y4030400I7170J-7235D01*
G02X7885600Y3900700I-17300J-112400D01*
G03X7868300Y3906300I-10065J-1570D01*
G37*
G36*
G01X3313500Y1830600D02*
G02X3138500I-87500J-72600D01*
G01Y1992200D01*
X3535100Y2388900D01*
G03X3527900Y2406300I-7185J7216D01*
G01X3403800D01*
G02X3366300Y2443800I0J37500D01*
G01Y2596200D01*
G02X3403800Y2633700I37500J0D01*
G01X3556200D01*
G02X3593700Y2596200I0J-37500D01*
G01Y2472100D01*
G03X3611100Y2464900I10184J-15D01*
G01X3964300Y2818000D01*
X5170800D01*
X5488300Y3135500D01*
X6787800D01*
X6890900Y3238700D01*
G03X6887700Y3255300I-7185J7223D01*
G02X6859400Y3272500I44270J104721D01*
G01X6377100D01*
X6365800Y3283800D01*
X3344000D01*
X2805500Y2745300D01*
Y2592600D01*
G02X2630500I-87500J-72600D01*
G01Y2817700D01*
X2679200Y2866500D01*
G03X2669500Y2883600I-7187J7225D01*
G02X2665600Y3117300I-29543J116390D01*
G01X2668400Y3116700D01*
X2937500Y3385900D01*
Y4577400D01*
G02X3062500I62500J102600D01*
G01Y3334100D01*
X2756700Y3028400D01*
X2757300Y3025600D01*
G02X2756400Y2970500I-117311J-25641D01*
G03X2773500Y2960800I9875J-2513D01*
G01X3271600Y3458800D01*
X6314500D01*
Y3767400D01*
G02X6394800Y3953500I87498J72620D01*
G03X6401400Y3970900I-602J10180D01*
G01X5883500Y4488800D01*
X5881700Y4489000D01*
G02X6007000Y4614300I12300J113000D01*
G01X6007200Y4612500D01*
X6017100Y4602600D01*
G03X6034500Y4609200I7220J7202D01*
G02X6168400Y4713900I113497J-7179D01*
G01X6171000Y4713400D01*
X6666100Y5208500D01*
X7091000D01*
G02X7123500Y5241000I95000J-62500D01*
G01Y5375900D01*
X7210100Y5462500D01*
X7345000D01*
G02Y5337500I95000J-62500D01*
G01X7261900D01*
X7248500Y5324100D01*
Y5241000D01*
G02X7091000Y5083500I-62500J-95000D01*
G01X6717900D01*
X6363500Y4729100D01*
G03X6373300Y4712000I7184J-7241D01*
G02X6292000Y4630700I28700J-110000D01*
G03X6274900Y4640500I-9859J2616D01*
G01X6259400Y4625000D01*
X6259900Y4622400D01*
G02X6155200Y4488500I-111879J-20403D01*
G03X6148600Y4471100I602J-10180D01*
G01X7172200Y3447500D01*
X7367400D01*
G02Y3272500I72600J-87500D01*
G01X7172200D01*
X6860200Y2960500D01*
X5560700D01*
X5243200Y2643000D01*
X4036700D01*
X3313500Y1919800D01*
Y1830600D01*
G37*
G54D17*
X1200000Y4016000D03*
X1920000D03*
X1560000Y6000000D03*
X2640000Y4016000D03*
X2160000Y4934000D03*
X3480000Y3000000D03*
Y4016000D03*
X3000000Y4934000D03*
X4080000Y4800000D03*
X4320000Y3000000D03*
Y4016000D03*
X5040000Y3064000D03*
Y4080000D03*
X6000000Y1800000D03*
Y2816000D03*
X7320000Y1864000D03*
X8400000Y2880000D03*
G54D16*
X1158000Y1758000D03*
Y2520000D03*
X1412000Y1758000D03*
X1920000D03*
X1412000Y2520000D03*
X1666000D03*
X2718000Y1758000D03*
X2972000D03*
X3480000D03*
X2972000Y2520000D03*
X3226000D03*
X5640000Y4602000D03*
X6148000Y3840000D03*
X7998000Y4680000D03*
X8506000Y3918000D03*
X8760000D03*
%LPD*%
G75*
G36*
G01X6489500Y3767400D02*
G03X6515500Y3832800I-87477J72645D01*
G02X6532900Y3839400I10180J-602D01*
G01X6890900Y3481300D01*
G02X6887700Y3464700I-7185J-7223D01*
G03X6859400Y3447500I44270J-104721D01*
G01X6489500D01*
Y3767400D01*
G37*
G54D10*
X480000Y6480000D03*
X600000Y600000D03*
X9480000D03*
Y6480000D03*
G54D11*
X1158000Y1758000D03*
Y2520000D03*
X500000Y2992000D03*
Y3246000D03*
Y3500000D03*
X1412000Y1758000D03*
X1666000D03*
X1920000D03*
X1412000Y2520000D03*
X1666000D03*
X2718000Y1758000D03*
Y2520000D03*
X2626000Y5986000D03*
X2972000Y1758000D03*
X3226000D03*
X3480000D03*
X2972000Y2520000D03*
X3226000D03*
X2880000Y5732000D03*
Y6240000D03*
X5640000Y4602000D03*
X6402000Y3840000D03*
X6148000D03*
X5894000D03*
X6402000Y4602000D03*
X6148000D03*
X5894000D03*
X6932000Y3360000D03*
X7186000Y3614000D03*
Y5146000D03*
X7440000Y3360000D03*
X7998000Y3918000D03*
Y4680000D03*
X7440000Y4892000D03*
Y5400000D03*
X8252000Y3918000D03*
X8506000D03*
X8760000D03*
X8252000Y4680000D03*
X8506000D03*
X9500000Y3754000D03*
Y3500000D03*
G54D12*
X1200000Y3000000D03*
Y4016000D03*
X1920000Y3000000D03*
Y4016000D03*
X1320000Y4934000D03*
Y4680000D03*
X1560000Y6254000D03*
Y6000000D03*
X2640000Y3000000D03*
Y4016000D03*
X2160000Y4934000D03*
Y4680000D03*
X3480000Y3000000D03*
Y4016000D03*
X3000000Y4934000D03*
Y4680000D03*
X4080000Y4800000D03*
Y5520000D03*
X4320000Y3000000D03*
Y4016000D03*
X5040000Y3064000D03*
Y4080000D03*
X5096000Y4800000D03*
Y5520000D03*
X6000000Y1800000D03*
Y2816000D03*
X7320000Y1864000D03*
Y2880000D03*
X8400000Y1864000D03*
Y2880000D03*
X8520000Y5280000D03*
Y6296000D03*
X9000000Y5280000D03*
Y6296000D03*
G54D13*
X1920000Y2520000D03*
X3480000D03*
X5640000Y3840000D03*
X8760000Y4680000D03*
G54D14*
G01X500000Y3500000D02*
X317500Y3317500D01*
Y2413000D01*
X571500Y2159000D01*
X1460600D01*
X1666000Y1953600D01*
Y1758000D01*
G01X7136000Y3360000D02*
X6824000Y3048000D01*
X5524500D01*
X5207000Y2730500D01*
X4000500D01*
X3226000Y1956000D01*
Y1758000D01*
G01X6402000Y3371300D02*
X3307800D01*
X2718000Y2781500D01*
Y2520000D01*
G01X6402000Y3840000D02*
Y3371300D01*
G01D02*
X6413300Y3360000D01*
X6932000D01*
G01X7136000D02*
X5894000Y4602000D01*
G01X7440000Y3360000D02*
X7136000D01*
G54D15*
G01X500000Y3127200D02*
Y3246000D01*
G01D02*
Y3364800D01*
G01Y3246000D02*
X618800D01*
G01X1074800Y4016000D02*
X1200000D01*
G01X1560000Y6254000D02*
X1364500D01*
X1079500Y5969000D01*
Y4920500D01*
X1320000Y4680000D01*
G01X1412000Y2401200D02*
Y2520000D01*
G01D02*
Y2638800D01*
G01X1293200Y2520000D02*
X1412000D01*
G01D02*
X1530800D01*
G01X1320000Y4680000D02*
X1524000Y4476000D01*
Y3324000D01*
X1200000Y3000000D01*
G01X1794800Y4016000D02*
X1920000D01*
G01X1200000Y3890800D02*
Y4016000D01*
G01D02*
Y4141200D01*
G01Y4016000D02*
X1325200D01*
G01X2160000Y4680000D02*
X2240700Y4599300D01*
Y3320700D01*
X1920000Y3000000D01*
G01X3000000Y4680000D02*
Y3360000D01*
X2640000Y3000000D01*
G01Y3890800D02*
Y4016000D01*
G01D02*
Y4141200D01*
G01X2514800Y4016000D02*
X2640000D01*
G01D02*
X2765200D01*
G01X1920000Y3890800D02*
Y4016000D01*
G01D02*
Y4141200D01*
G01Y4016000D02*
X2045200D01*
G01X2880000Y5732000D02*
Y5936000D01*
X2830000Y5986000D01*
X2626000D01*
G01X3354800Y4016000D02*
X3480000D01*
G01X2880000Y6240000D02*
X4872400D01*
X5096000Y6016400D01*
Y5520000D01*
G01X3480000Y3890800D02*
Y4016000D01*
G01D02*
Y4141200D01*
G01Y4016000D02*
X3605200D01*
G01X4080000Y5520000D02*
X4376000D01*
X5096000Y4800000D01*
G01X4914800Y4080000D02*
X5040000D01*
G01X4320000Y3890800D02*
Y4016000D01*
G01D02*
Y4141200D01*
G01X4194800Y4016000D02*
X4320000D01*
G01D02*
X4445200D01*
G01X5040000Y3954800D02*
Y4080000D01*
G01D02*
Y4205200D01*
G01Y4080000D02*
X5165200D01*
G01X5894000Y3840000D02*
Y4002000D01*
X5096000Y4800000D01*
G01X7186000Y5146000D02*
X6692000D01*
X6148000Y4602000D01*
G01X8252000Y4680000D02*
Y4378400D01*
X7487600Y3614000D01*
X7186000D01*
G01X7440000Y5400000D02*
X7236000D01*
X7186000Y5350000D01*
Y5146000D01*
G01X8252000Y3918000D02*
Y3299000D01*
X7833000Y2880000D01*
X7320000D01*
G01X8520000Y6296000D02*
Y5972000D01*
X7440000Y4892000D01*
G01X9500000Y3500000D02*
Y2070400D01*
X9293600Y1864000D01*
X8400000D01*
G01X9000000Y5280000D02*
Y4364500D01*
X8823500Y4188000D01*
X8252000D01*
Y3918000D01*
G01X8520000Y5280000D02*
Y4837000D01*
X8506000Y4823000D01*
Y4680000D01*
G01X9000000Y6296000D02*
Y5760000D01*
X8520000Y5280000D01*
G01X9500000Y3635200D02*
Y3754000D01*
G01D02*
Y3872800D01*
G01X9381200Y3754000D02*
X9500000D01*
M02*
