G04 ================== begin FILE IDENTIFICATION RECORD ==================*
G04 Layout Name:  C:/USERS/USER/DESKTOP/VSCODE_ORCAD/WORKSPACE/CAD2/allegro/CAD2.brd*
G04 Film Name:    SilkT*
G04 File Format:  Gerber RS274X*
G04 File Origin:  Cadence Allegro 17.2-P019*
G04 Origin Date:  Wed Jul 31 11:32:14 2019*
G04 *
G04 Layer:  REF DES/SILKSCREEN_TOP*
G04 Layer:  PACKAGE GEOMETRY/SILKSCREEN_TOP*
G04 Layer:  BOARD GEOMETRY/SILKSCREEN_TOP*
G04 *
G04 Offset:    (0.000 0.000)*
G04 Mirror:    No*
G04 Mode:      Positive*
G04 Rotation:  0*
G04 FullContactRelief:  No*
G04 UndefLineWidth:     0.200*
G04 ================== end FILE IDENTIFICATION RECORD ====================*
%FSLAX25Y25*MOMM*%
%IR0*IPPOS*OFA0.00000B0.00000*MIA0B0*SFA1.00000B1.00000*%
%ADD10C,.2*%
G75*
%LPD*%
G75*
G54D10*
G01X2047000Y2418400D02*
Y2266000D01*
X1983500Y2202500D01*
Y2075500D01*
X2047000Y2012000D01*
Y1859600D01*
X1031000D01*
Y2418400D01*
X2047000D01*
G01X373000Y3627000D02*
X627000D01*
Y2865000D01*
X373000D01*
Y3627000D01*
G01X1073000Y3152400D02*
Y3863600D01*
X1327000D01*
Y3152400D01*
X1073000D01*
G01X665600Y3609700D02*
X657800Y3604800D01*
X652500Y3599000D01*
X649900Y3592100D01*
X652500Y3584400D01*
X657800Y3578500D01*
X665600Y3572700D01*
X676100Y3570700D01*
X728600D01*
G01X649900Y3511500D02*
X728600D01*
X712900Y3523200D01*
G01X649900D02*
Y3499800D01*
G01X1902200Y1614300D02*
X1811200D01*
X1792100Y1607900D01*
X1779400Y1595000D01*
X1775200Y1579000D01*
X1779400Y1562900D01*
X1792100Y1550000D01*
X1811200Y1543600D01*
X1902200D01*
G01X1800600Y1484800D02*
X1785800Y1475200D01*
X1777300Y1462300D01*
X1775200Y1447800D01*
X1777300Y1435000D01*
X1787900Y1422100D01*
X1800600Y1414100D01*
X1813300Y1412500D01*
X1828100Y1415700D01*
X1838700Y1426900D01*
X1842900Y1438200D01*
Y1452700D01*
G01Y1438200D02*
X1849300Y1428500D01*
X1859900Y1420500D01*
X1872600Y1417300D01*
X1885300Y1420500D01*
X1895800Y1428500D01*
X1902200Y1443000D01*
X1900100Y1457500D01*
X1891600Y1472000D01*
G01X1793000Y3152400D02*
Y3863600D01*
X2047000D01*
Y3152400D01*
X1793000D01*
G01X1349400Y3622300D02*
Y3701000D01*
X1373800D01*
X1381600Y3697100D01*
X1386400Y3691800D01*
X1388400Y3681300D01*
X1386400Y3670800D01*
X1380600Y3664300D01*
X1373800Y3660300D01*
X1349400D01*
G01X1373800D02*
X1388400Y3622300D01*
G01X1426200Y3634100D02*
X1432000Y3627500D01*
X1438800Y3623600D01*
X1447600Y3622300D01*
X1456400Y3624900D01*
X1463200Y3630200D01*
X1468000Y3639400D01*
X1469000Y3649800D01*
X1467100Y3660300D01*
X1462200Y3666900D01*
X1455400Y3672100D01*
X1448600Y3673500D01*
X1441800Y3672100D01*
X1433000Y3666900D01*
X1435900Y3701000D01*
X1462200D01*
G01X1193000Y4553000D02*
Y5061000D01*
X1447000D01*
Y4553000D01*
X1193000D01*
G01X1570000Y5116400D02*
X1560400Y5122800D01*
X1549100Y5127000D01*
X1536300D01*
X1521800Y5120600D01*
X1510500Y5110100D01*
X1502500Y5097400D01*
X1496000Y5076200D01*
X1494400Y5057100D01*
X1497700Y5038100D01*
X1502500Y5025400D01*
X1512100Y5012700D01*
X1523400Y5004200D01*
X1534600Y5000000D01*
X1545900D01*
X1557200Y5004200D01*
X1566800Y5010600D01*
X1574900Y5019000D01*
G01X1633600Y5105800D02*
X1643200Y5118500D01*
X1654500Y5124900D01*
X1667400Y5127000D01*
X1683500Y5122800D01*
X1694700Y5112200D01*
X1697900Y5099500D01*
X1696300Y5086800D01*
X1689900Y5076200D01*
X1657700Y5055000D01*
X1643200Y5040200D01*
X1633600Y5019000D01*
X1630400Y5000000D01*
X1697900D01*
G01X1810000Y6436400D02*
X1800400Y6442800D01*
X1789100Y6447000D01*
X1776300D01*
X1761800Y6440600D01*
X1750500Y6430100D01*
X1742500Y6417400D01*
X1736000Y6396200D01*
X1734400Y6377100D01*
X1737700Y6358100D01*
X1742500Y6345400D01*
X1752100Y6332700D01*
X1763400Y6324200D01*
X1774600Y6320000D01*
X1785900D01*
X1797200Y6324200D01*
X1806800Y6330600D01*
X1814900Y6339000D01*
G01X1904100Y6320000D02*
Y6447000D01*
X1884800Y6421600D01*
G01Y6320000D02*
X1923400D01*
G01X1433000Y5873000D02*
Y6381000D01*
X1687000D01*
Y5873000D01*
X1433000D01*
G01X3607000Y2418400D02*
Y2266000D01*
X3543500Y2202500D01*
Y2075500D01*
X3607000Y2012000D01*
Y1859600D01*
X2591000D01*
Y2418400D01*
X3607000D01*
G01X2513000Y3152400D02*
Y3863600D01*
X2767000D01*
Y3152400D01*
X2513000D01*
G01X2069400Y3622300D02*
Y3701000D01*
X2093800D01*
X2101600Y3697100D01*
X2106400Y3691800D01*
X2108400Y3681300D01*
X2106400Y3670800D01*
X2100600Y3664300D01*
X2093800Y3660300D01*
X2069400D01*
G01X2093800D02*
X2108400Y3622300D01*
G01X2149100Y3655100D02*
X2155900Y3664300D01*
X2161800Y3669500D01*
X2169500Y3672100D01*
X2176400Y3669500D01*
X2181200Y3664300D01*
X2185100Y3656400D01*
X2186100Y3647200D01*
X2185100Y3639400D01*
X2181200Y3631500D01*
X2175400Y3624900D01*
X2168600Y3622300D01*
X2160800Y3624900D01*
X2154000Y3632800D01*
X2150100Y3644600D01*
X2149100Y3657700D01*
X2151100Y3674800D01*
X2154000Y3683900D01*
X2158800Y3693100D01*
X2165700Y3699700D01*
X2172500Y3701000D01*
X2179300Y3698400D01*
X2184100Y3691800D01*
G01X2033000Y4553000D02*
Y5061000D01*
X2287000D01*
Y4553000D01*
X2033000D01*
G01X2410000Y5116400D02*
X2400400Y5122800D01*
X2389100Y5127000D01*
X2376300D01*
X2361800Y5120600D01*
X2350500Y5110100D01*
X2342500Y5097400D01*
X2336000Y5076200D01*
X2334400Y5057100D01*
X2337700Y5038100D01*
X2342500Y5025400D01*
X2352100Y5012700D01*
X2363400Y5004200D01*
X2374600Y5000000D01*
X2385900D01*
X2397200Y5004200D01*
X2406800Y5010600D01*
X2414900Y5019000D01*
G01X2468800Y5025400D02*
X2478400Y5010600D01*
X2491300Y5002100D01*
X2505800Y5000000D01*
X2518600Y5002100D01*
X2531500Y5012700D01*
X2539500Y5025400D01*
X2541100Y5038100D01*
X2537900Y5052900D01*
X2526700Y5063500D01*
X2515400Y5067700D01*
X2500900D01*
G01X2515400D02*
X2525100Y5074100D01*
X2533100Y5084700D01*
X2536300Y5097400D01*
X2533100Y5110100D01*
X2525100Y5120600D01*
X2510600Y5127000D01*
X2496100Y5124900D01*
X2481600Y5116400D01*
G01X2438400Y6461000D02*
X2478600Y6334000D01*
X2518900Y6461000D01*
G01X2576000Y6334000D02*
Y6461000D01*
X2616200D01*
X2629100Y6454600D01*
X2637100Y6446200D01*
X2640300Y6429200D01*
X2637100Y6412300D01*
X2627500Y6401700D01*
X2616200Y6395400D01*
X2576000D01*
G01X2616200D02*
X2640300Y6334000D01*
G01X2737600D02*
Y6461000D01*
X2718300Y6435600D01*
G01Y6334000D02*
X2756900D01*
G01X2499000Y5668500D02*
Y6303500D01*
X3007000D01*
Y5668500D01*
X2499000D01*
G01X3462200Y1614300D02*
X3371200D01*
X3352100Y1607900D01*
X3339400Y1595000D01*
X3335200Y1579000D01*
X3339400Y1562900D01*
X3352100Y1550000D01*
X3371200Y1543600D01*
X3462200D01*
G01X3335200Y1430100D02*
X3462200D01*
X3371200Y1489700D01*
Y1409200D01*
G01X3353000Y3152400D02*
Y3863600D01*
X3607000D01*
Y3152400D01*
X3353000D01*
G01X2789400Y3622300D02*
Y3701000D01*
X2813800D01*
X2821600Y3697100D01*
X2826400Y3691800D01*
X2828400Y3681300D01*
X2826400Y3670800D01*
X2820600Y3664300D01*
X2813800Y3660300D01*
X2789400D01*
G01X2813800D02*
X2828400Y3622300D01*
G01X2885700D02*
X2887600Y3639400D01*
X2890500Y3653800D01*
X2894400Y3666900D01*
X2899300Y3681300D01*
X2907100Y3701000D01*
X2868100D01*
G01X2873000Y4553000D02*
Y5061000D01*
X3127000D01*
Y4553000D01*
X2873000D01*
G01X3250000Y5116400D02*
X3240400Y5122800D01*
X3229100Y5127000D01*
X3216300D01*
X3201800Y5120600D01*
X3190500Y5110100D01*
X3182500Y5097400D01*
X3176000Y5076200D01*
X3174400Y5057100D01*
X3177700Y5038100D01*
X3182500Y5025400D01*
X3192100Y5012700D01*
X3203400Y5004200D01*
X3214600Y5000000D01*
X3225900D01*
X3237200Y5004200D01*
X3246800Y5010600D01*
X3254900Y5019000D01*
G01X3363500Y5000000D02*
Y5127000D01*
X3303900Y5036000D01*
X3384400D01*
G01X3629400Y3622300D02*
Y3701000D01*
X3653800D01*
X3661600Y3697100D01*
X3666400Y3691800D01*
X3668400Y3681300D01*
X3666400Y3670800D01*
X3660600Y3664300D01*
X3653800Y3660300D01*
X3629400D01*
G01X3653800D02*
X3668400Y3622300D01*
G01X3727600D02*
X3734400Y3623600D01*
X3742200Y3627500D01*
X3747100Y3634100D01*
X3749000Y3643300D01*
X3747100Y3652500D01*
X3741200Y3660300D01*
X3732500Y3664300D01*
X3722700D01*
X3716900Y3666900D01*
X3712000Y3673500D01*
X3710100Y3682600D01*
X3713000Y3691800D01*
X3719800Y3698400D01*
X3727600Y3701000D01*
X3735400Y3698400D01*
X3742200Y3691800D01*
X3745100Y3682600D01*
X3743200Y3673500D01*
X3738300Y3666900D01*
X3732500Y3664300D01*
X3722700D01*
X3714000Y3660300D01*
X3708100Y3652500D01*
X3706200Y3643300D01*
X3708100Y3634100D01*
X3713000Y3627500D01*
X3720800Y3623600D01*
X3727600Y3622300D01*
G01X4929900Y3457700D02*
Y3379000D01*
X4905500D01*
X4897700Y3382900D01*
X4892900Y3388200D01*
X4890900Y3398700D01*
X4892900Y3409200D01*
X4898700Y3415700D01*
X4905500Y3419700D01*
X4929900D01*
G01X4905500D02*
X4890900Y3457700D01*
G01X4831700D02*
Y3379000D01*
X4843400Y3394700D01*
G01Y3457700D02*
X4820000D01*
G01X4774400Y3442000D02*
X4768600Y3451100D01*
X4760800Y3456400D01*
X4752000Y3457700D01*
X4744200Y3456400D01*
X4736500Y3449800D01*
X4731600Y3442000D01*
X4730600Y3434100D01*
X4732600Y3424900D01*
X4739400Y3418400D01*
X4746200Y3415700D01*
X4754900D01*
G01X4746200D02*
X4740300Y3411800D01*
X4735500Y3405200D01*
X4733500Y3397400D01*
X4735500Y3389500D01*
X4740300Y3382900D01*
X4749100Y3379000D01*
X4757900Y3380300D01*
X4766600Y3385600D01*
G01X4193000Y3152400D02*
Y3863600D01*
X4447000D01*
Y3152400D01*
X4193000D01*
G01X4469400Y3622300D02*
Y3701000D01*
X4493800D01*
X4501600Y3697100D01*
X4506400Y3691800D01*
X4508400Y3681300D01*
X4506400Y3670800D01*
X4500600Y3664300D01*
X4493800Y3660300D01*
X4469400D01*
G01X4493800D02*
X4508400Y3622300D01*
G01X4551100Y3631500D02*
X4557900Y3624900D01*
X4565700Y3622300D01*
X4573400Y3624900D01*
X4580300Y3632800D01*
X4585100Y3644600D01*
X4587100Y3656400D01*
Y3670800D01*
X4585100Y3682600D01*
X4580300Y3693100D01*
X4574400Y3698400D01*
X4567600Y3701000D01*
X4559800Y3698400D01*
X4554000Y3693100D01*
X4550100Y3685300D01*
X4548100Y3674800D01*
X4550100Y3665600D01*
X4554900Y3656400D01*
X4560800Y3651200D01*
X4567600Y3649800D01*
X4575400Y3652500D01*
X4581200Y3659000D01*
X4587100Y3670800D01*
G01X4702300Y4650600D02*
X4781000D01*
Y4626200D01*
X4777100Y4618400D01*
X4771800Y4613600D01*
X4761300Y4611600D01*
X4750800Y4613600D01*
X4744300Y4619400D01*
X4740300Y4626200D01*
Y4650600D01*
G01Y4626200D02*
X4702300Y4611600D01*
G01X4718000Y4573800D02*
X4708900Y4568000D01*
X4703600Y4560200D01*
X4702300Y4551400D01*
X4703600Y4543600D01*
X4710200Y4535900D01*
X4718000Y4531000D01*
X4725900Y4530000D01*
X4735100Y4532000D01*
X4741600Y4538800D01*
X4744300Y4545600D01*
Y4554300D01*
G01Y4545600D02*
X4748200Y4539700D01*
X4754800Y4534900D01*
X4762600Y4532900D01*
X4770500Y4534900D01*
X4777100Y4539700D01*
X4781000Y4548500D01*
X4779700Y4557300D01*
X4774400Y4566000D01*
G01X4232400Y4927000D02*
X4943600D01*
Y4673000D01*
X4232400D01*
Y4927000D01*
G01X4702300Y5370600D02*
X4781000D01*
Y5346200D01*
X4777100Y5338400D01*
X4771800Y5333600D01*
X4761300Y5331600D01*
X4750800Y5333600D01*
X4744300Y5339400D01*
X4740300Y5346200D01*
Y5370600D01*
G01Y5346200D02*
X4702300Y5331600D01*
G01X4767900Y5290900D02*
X4775800Y5285100D01*
X4779700Y5278200D01*
X4781000Y5270500D01*
X4778400Y5260700D01*
X4771800Y5253900D01*
X4763900Y5252000D01*
X4756100Y5252900D01*
X4749500Y5256800D01*
X4736400Y5276300D01*
X4727200Y5285100D01*
X4714100Y5290900D01*
X4702300Y5292800D01*
Y5252000D01*
G01X4232400Y5647000D02*
X4943600D01*
Y5393000D01*
X4232400D01*
Y5647000D01*
G01X5167000Y3927600D02*
Y3216400D01*
X4913000D01*
Y3927600D01*
X5167000D01*
G01X5513000Y3941600D02*
Y4094000D01*
X5576500Y4157500D01*
Y4284500D01*
X5513000Y4348000D01*
Y4500400D01*
X6529000D01*
Y3941600D01*
X5513000D01*
G01X5657800Y4745700D02*
X5748800D01*
X5767900Y4752100D01*
X5780600Y4765000D01*
X5784800Y4781000D01*
X5780600Y4797100D01*
X5767900Y4810000D01*
X5748800Y4816400D01*
X5657800D01*
G01X5784800Y4910500D02*
X5657800D01*
X5683200Y4891200D01*
G01X5784800D02*
Y4929800D01*
G01X6110100Y2422300D02*
Y2501000D01*
X6134500D01*
X6142300Y2497100D01*
X6147100Y2491800D01*
X6149100Y2481300D01*
X6147100Y2470800D01*
X6141300Y2464300D01*
X6134500Y2460300D01*
X6110100D01*
G01X6134500D02*
X6149100Y2422300D01*
G01X6208300D02*
Y2501000D01*
X6196600Y2485300D01*
G01Y2422300D02*
X6220000D01*
G01X6268500Y2487900D02*
X6274300Y2495800D01*
X6281200Y2499700D01*
X6288900Y2501000D01*
X6298700Y2498400D01*
X6305500Y2491800D01*
X6307400Y2483900D01*
X6306500Y2476100D01*
X6302600Y2469500D01*
X6283100Y2456400D01*
X6274300Y2447200D01*
X6268500Y2434100D01*
X6266600Y2422300D01*
X6307400D01*
G01X5873000Y1952400D02*
Y2663600D01*
X6127000D01*
Y1952400D01*
X5873000D01*
G01X7209900Y2257700D02*
Y2179000D01*
X7185500D01*
X7177700Y2182900D01*
X7172900Y2188200D01*
X7170900Y2198700D01*
X7172900Y2209200D01*
X7178700Y2215700D01*
X7185500Y2219700D01*
X7209900D01*
G01X7185500D02*
X7170900Y2257700D01*
G01X7111700D02*
Y2179000D01*
X7123400Y2194700D01*
G01Y2257700D02*
X7100000D01*
G01X7033000Y2179000D02*
X7040800Y2181600D01*
X7046600Y2188200D01*
X7050500Y2196100D01*
X7053400Y2206500D01*
X7054400Y2218400D01*
X7053400Y2230200D01*
X7050500Y2240600D01*
X7046600Y2248500D01*
X7040800Y2255100D01*
X7033000Y2257700D01*
X7025200Y2255100D01*
X7019400Y2248500D01*
X7015500Y2240600D01*
X7012600Y2230200D01*
X7011600Y2218400D01*
X7012600Y2206500D01*
X7015500Y2196100D01*
X7019400Y2188200D01*
X7025200Y2181600D01*
X7033000Y2179000D01*
G01X6868500Y3741000D02*
X7503500D01*
Y3233000D01*
X6868500D01*
Y3741000D01*
G01X7059000Y4828500D02*
Y5463500D01*
X7567000D01*
Y4828500D01*
X7059000D01*
G01X6998400Y5621000D02*
X7038600Y5494000D01*
X7078900Y5621000D01*
G01X7136000Y5494000D02*
Y5621000D01*
X7176200D01*
X7189100Y5614600D01*
X7197100Y5606200D01*
X7200300Y5589200D01*
X7197100Y5572300D01*
X7187500Y5561700D01*
X7176200Y5555400D01*
X7136000D01*
G01X7176200D02*
X7200300Y5494000D01*
G01X7267100Y5599800D02*
X7276700Y5612500D01*
X7288000Y5618900D01*
X7300900Y5621000D01*
X7317000Y5616800D01*
X7328200Y5606200D01*
X7331400Y5593500D01*
X7329800Y5580800D01*
X7323400Y5570200D01*
X7291200Y5549000D01*
X7276700Y5534200D01*
X7267100Y5513000D01*
X7263900Y5494000D01*
X7331400D01*
G01X7447000Y2727600D02*
Y2016400D01*
X7193000D01*
Y2727600D01*
X7447000D01*
G01X8887000Y4578400D02*
Y4426000D01*
X8823500Y4362500D01*
Y4235500D01*
X8887000Y4172000D01*
Y4019600D01*
X7871000D01*
Y4578400D01*
X8887000D01*
G01X7661000Y3801600D02*
X7534000Y3761400D01*
X7661000Y3721100D01*
G01X7534000Y3664000D02*
X7661000D01*
Y3623800D01*
X7654600Y3610900D01*
X7646200Y3602900D01*
X7629200Y3599700D01*
X7612300Y3602900D01*
X7601700Y3612500D01*
X7595400Y3623800D01*
Y3664000D01*
G01Y3623800D02*
X7534000Y3599700D01*
G01X7559400Y3537700D02*
X7544600Y3528100D01*
X7536100Y3515200D01*
X7534000Y3500700D01*
X7536100Y3487900D01*
X7546700Y3475000D01*
X7559400Y3467000D01*
X7572100Y3465400D01*
X7586900Y3468600D01*
X7597500Y3479800D01*
X7601700Y3491100D01*
Y3505600D01*
G01Y3491100D02*
X7608100Y3481400D01*
X7618700Y3473400D01*
X7631400Y3470200D01*
X7644100Y3473400D01*
X7654600Y3481400D01*
X7661000Y3495900D01*
X7658900Y3510400D01*
X7650400Y3524900D01*
G01X8289900Y2257700D02*
Y2179000D01*
X8265500D01*
X8257700Y2182900D01*
X8252900Y2188200D01*
X8250900Y2198700D01*
X8252900Y2209200D01*
X8258700Y2215700D01*
X8265500Y2219700D01*
X8289900D01*
G01X8265500D02*
X8250900Y2257700D01*
G01X8191700D02*
Y2179000D01*
X8203400Y2194700D01*
G01Y2257700D02*
X8180000D01*
G01X8113000D02*
Y2179000D01*
X8124700Y2194700D01*
G01Y2257700D02*
X8101300D01*
G01X8527000Y2727600D02*
Y2016400D01*
X8273000D01*
Y2727600D01*
X8527000D01*
G01X8742200Y3774300D02*
X8651200D01*
X8632100Y3767900D01*
X8619400Y3755000D01*
X8615200Y3739000D01*
X8619400Y3722900D01*
X8632100Y3710000D01*
X8651200Y3703600D01*
X8742200D01*
G01X8721000Y3640000D02*
X8733700Y3630400D01*
X8740100Y3619100D01*
X8742200Y3606200D01*
X8738000Y3590100D01*
X8727400Y3578900D01*
X8714700Y3575700D01*
X8702000Y3577300D01*
X8691400Y3583700D01*
X8670200Y3615900D01*
X8655400Y3630400D01*
X8634200Y3640000D01*
X8615200Y3643200D01*
Y3575700D01*
G01X8393000Y5432400D02*
Y6143600D01*
X8647000D01*
Y5432400D01*
X8393000D01*
G01X8669400Y5902300D02*
Y5981000D01*
X8693800D01*
X8701600Y5977100D01*
X8706400Y5971800D01*
X8708400Y5961300D01*
X8706400Y5950800D01*
X8700600Y5944300D01*
X8693800Y5940300D01*
X8669400D01*
G01X8693800D02*
X8708400Y5902300D01*
G01X8779300D02*
Y5981000D01*
X8743300Y5924600D01*
X8791900D01*
G01X9344600Y3370000D02*
X9352400Y3374900D01*
X9357700Y3380700D01*
X9360300Y3387600D01*
X9357700Y3395300D01*
X9352400Y3401200D01*
X9344600Y3407000D01*
X9334100Y3409000D01*
X9281600D01*
G01X9294700Y3449700D02*
X9286800Y3455500D01*
X9282900Y3462400D01*
X9281600Y3470100D01*
X9284200Y3479900D01*
X9290800Y3486700D01*
X9298700Y3488600D01*
X9306500Y3487700D01*
X9313100Y3483800D01*
X9326200Y3464300D01*
X9335400Y3455500D01*
X9348500Y3449700D01*
X9360300Y3447800D01*
Y3488600D01*
G01X9627000Y3373000D02*
X9373000D01*
Y3881000D01*
X9627000D01*
Y3373000D01*
G01X8873000Y5432400D02*
Y6143600D01*
X9127000D01*
Y5432400D01*
X8873000D01*
G01X9149400Y5902300D02*
Y5981000D01*
X9173800D01*
X9181600Y5977100D01*
X9186400Y5971800D01*
X9188400Y5961300D01*
X9186400Y5950800D01*
X9180600Y5944300D01*
X9173800Y5940300D01*
X9149400D01*
G01X9173800D02*
X9188400Y5902300D01*
G01X9247600D02*
Y5981000D01*
X9235900Y5965300D01*
G01Y5902300D02*
X9259300D01*
M02*
