G04 ================== begin FILE IDENTIFICATION RECORD ==================*
G04 Layout Name:  C:/USERS/USER/DESKTOP/VSCODE_ORCAD/WORKSPACE/CAD2/allegro/CAD2.brd*
G04 Film Name:    TOP*
G04 File Format:  Gerber RS274X*
G04 File Origin:  Cadence Allegro 17.2-P019*
G04 Origin Date:  Wed Jul 31 11:32:14 2019*
G04 *
G04 Layer:  ETCH/TOP*
G04 Layer:  PIN/TOP*
G04 Layer:  VIA CLASS/TOP*
G04 *
G04 Offset:    (0.000 0.000)*
G04 Mirror:    No*
G04 Mode:      Positive*
G04 Rotation:  0*
G04 FullContactRelief:  No*
G04 UndefLineWidth:     0.000*
G04 ================== end FILE IDENTIFICATION RECORD ====================*
%FSLAX25Y25*MOMM*%
%IR0*IPPOS*OFA0.00000B0.00000*MIA0B0*SFA1.00000B1.00000*%
%ADD11C,1.524*%
%ADD12C,1.651*%
%ADD13R,1.524X1.524*%
%ADD10C,.635*%
%ADD14C,1.*%
%ADD15C,.5*%
G75*
%LPD*%
G75*
G54D10*
X480000Y6480000D03*
X600000Y600000D03*
X9480000D03*
Y6480000D03*
G54D11*
X1158000Y1758000D03*
Y2520000D03*
X500000Y2992000D03*
Y3246000D03*
Y3500000D03*
X1412000Y1758000D03*
X1666000D03*
X1920000D03*
X1412000Y2520000D03*
X1666000D03*
X2718000Y1758000D03*
Y2520000D03*
X2626000Y5986000D03*
X2972000Y1758000D03*
X3226000D03*
X3480000D03*
X2972000Y2520000D03*
X3226000D03*
X2880000Y5732000D03*
Y6240000D03*
X5640000Y4602000D03*
X6402000Y3840000D03*
X6148000D03*
X5894000D03*
X6402000Y4602000D03*
X6148000D03*
X5894000D03*
X6932000Y3360000D03*
X7186000Y3614000D03*
Y5146000D03*
X7440000Y3360000D03*
X7998000Y3918000D03*
Y4680000D03*
X7440000Y4892000D03*
Y5400000D03*
X8252000Y3918000D03*
X8506000D03*
X8760000D03*
X8252000Y4680000D03*
X8506000D03*
X9500000Y3754000D03*
Y3500000D03*
G54D12*
X1200000Y3000000D03*
Y4016000D03*
X1920000Y3000000D03*
Y4016000D03*
X1320000Y4934000D03*
Y4680000D03*
X1560000Y6254000D03*
Y6000000D03*
X2640000Y3000000D03*
Y4016000D03*
X2160000Y4934000D03*
Y4680000D03*
X3480000Y3000000D03*
Y4016000D03*
X3000000Y4934000D03*
Y4680000D03*
X4080000Y4800000D03*
Y5520000D03*
X4320000Y3000000D03*
Y4016000D03*
X5040000Y3064000D03*
Y4080000D03*
X5096000Y4800000D03*
Y5520000D03*
X6000000Y1800000D03*
Y2816000D03*
X7320000Y1864000D03*
Y2880000D03*
X8400000Y1864000D03*
Y2880000D03*
X8520000Y5280000D03*
Y6296000D03*
X9000000Y5280000D03*
Y6296000D03*
G54D13*
X1920000Y2520000D03*
X3480000D03*
X5640000Y3840000D03*
X8760000Y4680000D03*
G54D14*
G01X500000Y2992000D02*
Y2802000D01*
X608000Y2694000D01*
X1158000D01*
G01X1666000Y1758000D02*
Y1897000D01*
X1737500Y1968500D01*
X3154500D01*
X3226000Y1897000D01*
Y1758000D01*
G01X1412000Y2520000D02*
X1524000Y2408000D01*
G01X1158000Y2694000D02*
Y2520000D01*
G01X2718000D02*
X2433000D01*
X2259000Y2694000D01*
X1158000D01*
G01X7998000Y4680000D02*
X7242000D01*
X6402000Y3840000D01*
G01X7440000Y3360000D02*
X8313000D01*
X8506000Y3553000D01*
Y3918000D01*
G54D15*
G01X1412000Y1758000D02*
X1709500Y1460500D01*
X5842100D01*
X6000000Y1618400D01*
Y1637500D01*
G01X1666000Y2520000D02*
X1963500Y2222500D01*
X6662500D01*
X7320000Y2880000D01*
G01X1320000Y4934000D02*
X1670000D01*
X1924000Y4680000D01*
X2160000D01*
G01X1560000Y6000000D02*
X2498000D01*
X2512000Y5986000D01*
X2626000D01*
G01X2160000Y4934000D02*
X2432000D01*
X2686000Y4680000D01*
X3000000D01*
G01X8400000Y1864000D02*
Y2014000D01*
X8318500Y2095500D01*
X6032500D01*
X5524500Y1587500D01*
X3022000D01*
X2972000Y1637500D01*
Y1758000D01*
G01X6000000Y2816000D02*
X5501000Y2317000D01*
X3429000D01*
X3226000Y2520000D01*
G01X2972000D02*
Y2718000D01*
X3111500Y2857500D01*
X4635500D01*
X4842000Y3064000D01*
X5040000D01*
G01X3000000Y4934000D02*
X3429000D01*
X3563000Y4800000D01*
X4080000D01*
G01X2880000Y5732000D02*
Y5375000D01*
X3175000Y5080000D01*
X5905500D01*
X6148000Y4837500D01*
Y4602000D01*
G01X4080000Y4800000D02*
Y4207000D01*
X3480000Y3607000D01*
Y3000000D01*
G01X4320000D02*
X4749000Y3429000D01*
X5737000D01*
X6148000Y3840000D01*
G01X6000000Y1800000D02*
Y1637500D01*
G01X7320000Y1864000D02*
Y1668400D01*
X7239100Y1587500D01*
X6050000D01*
X6000000Y1637500D01*
G01Y2816000D02*
X6295500Y3111500D01*
X8350000D01*
X8400000Y3061500D01*
Y2880000D01*
M02*
